<svg width="52" height="52" viewBox="0 0 52 52" fill="none" xmlns="http://www.w3.org/2000/svg">
<path d="M26 37.7602C17.8165 37.7602 10.3502 33.5742 6.04287 26.5672C5.8262 26.2205 5.8262 25.785 6.04287 25.4383C10.3502 18.4335 17.8165 14.2432 26 14.2432C34.1835 14.2432 41.6499 18.4335 45.9572 25.4362C46.1739 25.7828 46.1739 26.2183 45.9572 26.565C41.6499 33.5742 34.1835 37.7602 26 37.7602ZM8.25287 25.9995C12.2092 32.0163 18.7959 35.5935 26 35.5935C33.2042 35.5935 39.7909 32.0228 43.7472 25.9995C39.7909 19.9827 33.2042 16.4055 26 16.4055C18.7959 16.4055 12.2092 19.9827 8.25287 25.9995Z" fill="white"/>
<path d="M26.0001 32.9269C22.1781 32.9269 19.0732 29.8134 19.0732 26.0001C19.0732 22.1867 22.1824 19.0732 26.0001 19.0732C29.8177 19.0732 32.9269 22.1867 32.9269 26.0001C32.9269 29.8134 29.8221 32.9269 26.0001 32.9269ZM26.0001 21.2399C23.3741 21.2399 21.2399 23.3741 21.2399 26.0001C21.2399 28.6261 23.3741 30.7602 26.0001 30.7602C28.6261 30.7602 30.7602 28.6261 30.7602 26.0001C30.7602 23.3741 28.6261 21.2399 26.0001 21.2399Z" fill="white"/>
<path d="M34.3265 36.1525C34.034 36.1525 33.7415 36.0334 33.5292 35.8015C33.124 35.3617 33.1522 34.6749 33.5942 34.274C35.8974 32.1529 37.2277 29.1369 37.2277 26.006C37.2277 22.8752 35.8995 19.8527 33.5855 17.7337C33.1435 17.3264 33.1154 16.6417 33.5205 16.2019C33.9279 15.762 34.6169 15.736 35.0502 16.139C37.8084 18.6719 39.3944 22.2707 39.3944 26.0125C39.3944 29.7587 37.8149 33.3532 35.061 35.8839C34.8509 36.0594 34.5887 36.1525 34.3265 36.1525Z" fill="white"/>
<path d="M17.6822 36.1576C17.42 36.1576 17.1579 36.0644 16.9499 35.8738C14.1917 33.3388 12.6057 29.7421 12.6057 25.9981C12.6057 22.2541 14.1852 18.6574 16.9434 16.1268C17.3832 15.7238 18.0722 15.7541 18.4752 16.1896C18.8782 16.6273 18.8522 17.3184 18.4102 17.7193C16.1027 19.8404 14.7724 22.8564 14.7724 25.9894C14.7724 29.1224 16.1005 32.1428 18.4145 34.2639C18.8565 34.6691 18.8847 35.3538 18.4795 35.7936C18.2694 36.0406 17.9747 36.1576 17.6822 36.1576Z" fill="white"/>
<path d="M50.9167 52H1.08333C0.4875 52 0 51.5125 0 50.9167V1.08333C0 0.4875 0.4875 0 1.08333 0H50.9167C51.5125 0 52 0.4875 52 1.08333V50.9167C52 51.5125 51.5125 52 50.9167 52ZM2.16667 49.8333H49.8333V2.16667H2.16667V49.8333Z" fill="white"/>
</svg>
