<svg width="54" height="54" viewBox="0 0 54 54" fill="none" xmlns="http://www.w3.org/2000/svg">
<path d="M52.1333 14.8669H46.9333V1.86666C46.9333 1.38783 46.5455 1 46.0667 1H7.93333C7.4545 1 7.06667 1.38783 7.06667 1.86666V14.8669H1.86667C1.38783 14.8669 1 15.2547 1 15.7335V52.1333C1 52.6122 1.38783 53 1.86667 53H52.1333C52.6122 53 53 52.6122 53 52.1333V15.7335C53 15.2547 52.6122 14.8669 52.1333 14.8669ZM23.3667 35.2874C23.5205 35.4065 23.6895 35.5019 23.852 35.6037L2.73361 50.4648V17.6182L23.3667 35.2874ZM25.7543 36.3837C26.1638 36.4726 26.5798 36.5332 27.0002 36.5332C27.4205 36.5332 27.8365 36.4725 28.246 36.3816L49.3971 51.2665H4.60334L25.7543 36.3837ZM30.1462 35.6015C30.3217 35.491 30.5015 35.3892 30.6662 35.2614L51.2671 17.6164V50.463L30.1462 35.6015ZM49.7891 16.5999L46.9335 19.046V16.5999H49.7891ZM8.80039 2.73327H45.2004V20.5302L29.5699 33.9181C28.1096 35.0535 25.8605 35.0275 24.4631 33.9441L8.80039 20.5301V2.73327ZM7.06705 19.0459L4.21141 16.5997H7.06705V19.0459ZM12.2671 20.0664C12.2671 19.5876 12.6549 19.1997 13.1337 19.1997H40.8671C41.3459 19.1997 41.7337 19.5876 41.7337 20.0664C41.7337 20.5452 41.3459 20.9331 40.8671 20.9331H13.1337C12.6549 20.9331 12.2671 20.5452 12.2671 20.0664ZM12.2671 13.9995C12.2671 13.5207 12.6549 13.1328 13.1337 13.1328H40.8671C41.3459 13.1328 41.7337 13.5207 41.7337 13.9995C41.7337 14.4783 41.3459 14.8661 40.8671 14.8661H13.1337C12.6549 14.8661 12.2671 14.4783 12.2671 13.9995ZM12.2671 7.93258C12.2671 7.45375 12.6549 7.06591 13.1337 7.06591H40.8671C41.3459 7.06591 41.7337 7.45375 41.7337 7.93258C41.7337 8.41141 41.3459 8.79924 40.8671 8.79924H13.1337C12.6549 8.79924 12.2671 8.41141 12.2671 7.93258Z" fill="white" stroke="white" stroke-width="0.5"/>
</svg>
